# xmcd CD database file
#
# Track frame offsets:
#	150
#	15630
#	23758
#	37812
#	47636
#	63233
#	76822
#	95223
#	105582
#	112506
#	125274
#	137097
#	150380
#	168009
#	183550
#	193101
#	201546
#	207531
#	217473
#	228663
#	240921
#	254528
#
# Disc length: 3561 seconds
#
# Revision: 0
# Processed by: cddbd v1.5.1PL0 Copyright (c) Steve Scherf et al.
# Submitted via: CDex 1.50
#
DISCID=2c0de716
DTITLE=Juliette Greco - Rive Gauche on Radio
DYEAR=2005
DGENRE=Jazz
TTITLE0=Si tu t'imagines
TTITLE1=Avec lui
TTITLE2=A la belle étoile
TTITLE3=Je mens
TTITLE4=A l'ensigne de la fille sans coeur
TTITLE5=Embrasse-moi
TTITLE6=Les feuilles mortes
TTITLE7=Le coeur cassé
TTITLE8=Rue des blancs-manteaux
TTITLE9=Les dames de la poste
TTITLE10=Je hais les dimanches
TTITLE11=Sous le ciel de Paris
TTITLE12=La chanson de Barbara
TTITLE13=Les croix
TTITLE14=Je suis égoiste
TTITLE15=L'ombre
TTITLE16=La fourmi
TTITLE17=Il y avait
TTITLE18=Je suis comme je suis
TTITLE19=Les enfants qui s'aiment
TTITLE20=Si tu t'imagines (Alt. Vers.)
TTITLE21=Embrasse-moi (Alt. Vers.)
EXTD=YEAR: 2005
EXTT0=
EXTT1=
EXTT2=
EXTT3=
EXTT4=
EXTT5=
EXTT6=
EXTT7=
EXTT8=
EXTT9=
EXTT10=
EXTT11=
EXTT12=
EXTT13=
EXTT14=
EXTT15=
EXTT16=
EXTT17=
EXTT18=
EXTT19=
EXTT20=
EXTT21=
PLAYORDER=
